<?xml version="1.0" encoding="utf-8"?>
<!-- Generator: Adobe Illustrator 23.0.6, SVG Export Plug-In . SVG Version: 6.00 Build 0)  -->
<svg version="1.1" id="Layer_1" xmlns="http://www.w3.org/2000/svg" xmlns:xlink="http://www.w3.org/1999/xlink" x="0px" y="0px"
	 viewBox="0 0 1133.86 226.77" style="enable-background:new 0 0 1133.86 226.77;" xml:space="preserve">
<style type="text/css">
	.st0{fill:#E3D386;}
	.st1{fill-rule:evenodd;clip-rule:evenodd;fill:#E3D386;}
</style>
<g>
	<path class="st0" d="M113.38-0.01C50.85,0,0,50.85-0.01,113.38C0,175.91,50.85,226.76,113.38,226.76
		c62.53,0,113.39-50.86,113.39-113.38C226.76,50.85,175.9,0,113.38-0.01 M185.93,185.81c-18.59,18.56-44.25,30.05-72.55,30.05
		c-28.31,0-53.96-11.49-72.56-30.05c-18.59-18.57-30.1-44.18-30.1-72.43c0-28.26,11.51-53.87,30.1-72.44
		c18.6-18.56,44.25-30.05,72.56-30.05c28.31,0,53.96,11.49,72.55,30.05c18.6,18.57,30.1,44.18,30.1,72.44
		C216.03,141.64,204.53,167.25,185.93,185.81"/>
	<path class="st0" d="M105.38,76.15c-0.14-0.16-0.3-0.26-0.46-0.33c-0.24-0.11-0.49-0.17-0.75-0.21c-0.26-0.04-0.54-0.05-0.83-0.05
		c-1.04,0-2.34,0.17-3.62,0.33c-1.28,0.16-2.54,0.32-3.4,0.32c-0.68,0-1.16-0.05-1.47-0.12c-0.24-0.05-0.37-0.12-0.43-0.16
		l-0.08-0.08c-0.02-0.04-0.06-0.12-0.08-0.28c-0.02-0.16-0.02-0.39-0.02-0.67v-7.53l0.03-0.02c0.08-0.05,0.26-0.13,0.48-0.19
		c0.4-0.12,0.97-0.21,1.61-0.3c0.96-0.14,2.08-0.26,3.12-0.51c0.52-0.12,1.03-0.27,1.5-0.48c0.47-0.21,0.9-0.47,1.26-0.84
		c0.7-0.71,1.02-1.57,1.01-2.37c0-0.93-0.39-1.75-0.92-2.36c-0.27-0.31-0.58-0.56-0.92-0.75c-0.34-0.19-0.72-0.31-1.12-0.31
		c-0.25,0-0.51,0.04-0.8,0.09c-1.01,0.18-2.4,0.61-3.58,0.99c-0.32,0.11-0.62,0.21-0.89,0.3c0.19-1.2,0.44-3.07,0.45-4.83
		c0-1.13-0.1-2.2-0.43-3.09L95,52.66l-0.01-0.03c-0.54-1.12-1.51-1.85-2.54-2.29c-1.03-0.44-2.16-0.61-3.16-0.61
		c-0.76,0-1.44,0.1-2,0.29c-0.28,0.1-0.53,0.22-0.76,0.41c-0.11,0.1-0.22,0.21-0.31,0.37c-0.09,0.15-0.15,0.35-0.14,0.54
		c0,0.41,0.09,0.83,0.2,1.29c0.29,1.15,0.57,2.44,0.72,2.82c0.44,2.89,0.36,16.29,0.36,17.85c0,0.86-0.17,1.94-0.46,2.73
		c-0.14,0.39-0.32,0.71-0.48,0.88c-0.08,0.09-0.15,0.14-0.19,0.16l-0.1,0.03c-0.38,0-0.95,0.05-1.69,0.12
		c-2.2,0.21-5.81,0.61-8.08,0.61c-0.71,0-1.26,0-1.7,0.02c-0.33,0.01-0.59,0.03-0.84,0.08c-0.19,0.04-0.37,0.09-0.55,0.2
		c-0.14,0.08-0.27,0.2-0.36,0.34c-0.15,0.21-0.2,0.43-0.23,0.6c-0.03,0.18-0.03,0.35-0.03,0.52c0,0.1,0,0.19,0,0.3
		c0,0.41,0.06,0.89,0.18,1.41c0.18,0.78,0.47,1.63,0.94,2.35c0.24,0.36,0.52,0.69,0.88,0.95c0.36,0.26,0.81,0.43,1.29,0.43
		c0.51,0,1.2-0.09,2.03-0.21c1.23-0.19,2.74-0.46,4.09-0.69c0.68-0.12,1.31-0.22,1.85-0.29c0.54-0.07,0.98-0.12,1.24-0.11
		c0.47,0,1.13-0.05,1.99-0.12c2.56-0.21,6.86-0.62,12.02-0.62c1.36,0,2.45-0.14,3.33-0.39c1.32-0.37,2.2-1.05,2.69-1.85
		c0.49-0.8,0.59-1.65,0.59-2.35c0-0.61-0.07-1.14-0.07-1.42C105.69,76.67,105.57,76.36,105.38,76.15"/>
	<polygon class="st0" points="127.41,84.1 127.41,84.1 127.41,84.1 	"/>
	<path class="st0" d="M134.11,65.06c-0.5-0.4-1.15-0.7-1.89-0.7c-0.89,0-1.82,0-2.53,0c-0.48,0-0.86,0-1.05,0
		c0.04-0.07,0.08-0.16,0.15-0.25c0.19-0.29,0.5-0.67,0.95-1.13l0,0c0.31-0.33,0.48-0.71,0.64-1.12c0.23-0.61,0.41-1.29,0.62-1.9
		c0.21-0.61,0.46-1.13,0.7-1.37c0.54-0.56,1.04-1.18,1.42-1.84c0.38-0.66,0.65-1.36,0.65-2.1c0-0.29-0.09-0.55-0.22-0.76
		c-0.22-0.37-0.53-0.62-0.85-0.84c-0.48-0.33-1.02-0.58-1.48-0.8c-0.23-0.11-0.43-0.21-0.58-0.29c-0.08-0.04-0.14-0.08-0.18-0.11
		l-0.05-0.03l-0.01-0.01v0c-0.27-0.27-0.58-0.43-0.94-0.57c-0.36-0.13-0.76-0.22-1.17-0.23c-0.37,0-0.79,0.07-1.16,0.36
		c-0.18,0.14-0.34,0.34-0.44,0.56c-0.1,0.23-0.14,0.47-0.14,0.73c0,1.36-0.16,3.83-1.46,6.44v0c-0.7,1.42-1.45,3.23-2.13,4.93
		c-0.68,1.7-1.29,3.29-1.69,4.23l0,0.01l0-0.01c-0.24,0.57-0.53,0.92-0.75,1.16c-0.12,0.12-0.22,0.2-0.31,0.29
		c-0.05,0.04-0.09,0.08-0.15,0.15c-0.03,0.04-0.07,0.08-0.12,0.15c-0.04,0.08-0.11,0.2-0.12,0.41c0,0.09,0.02,0.2,0.06,0.3
		c0.08,0.19,0.22,0.3,0.31,0.36c0.17,0.1,0.26,0.1,0.34,0.12c0.11,0.02,0.19,0.02,0.28,0.02c0.1,0,0.2,0,0.33,0
		c0.44,0,0.84-0.09,1.19-0.21c1.06-0.36,1.72-0.87,3.5-0.88c0.4,0,0.73,0.03,0.97,0.08c0.18,0.04,0.31,0.09,0.4,0.14
		c0.14,0.08,0.19,0.14,0.25,0.26c0.06,0.12,0.11,0.32,0.11,0.62c0,0.51-0.14,1.29-0.42,2.31v0c-0.36,1.3-0.64,2.56-0.93,3.43
		c-0.15,0.43-0.3,0.77-0.42,0.93c-0.04,0.06-0.08,0.09-0.1,0.11c-0.02-0.01-0.05-0.02-0.11-0.06c-0.09-0.05-0.21-0.15-0.35-0.3
		c-0.77-0.8-1.31-1.54-1.74-2.11c-0.21-0.29-0.39-0.53-0.59-0.74c-0.1-0.11-0.2-0.2-0.34-0.3c-0.14-0.09-0.33-0.18-0.59-0.18
		c-0.14,0-0.3,0.04-0.42,0.1c-0.13,0.06-0.22,0.14-0.3,0.22c-0.16,0.17-0.21,0.33-0.24,0.46c-0.03,0.13-0.04,0.24-0.04,0.36
		c0,0.24,0.04,0.48,0.09,0.75c0.18,0.94,0.58,2.25,0.94,3.51c0.18,0.63,0.35,1.23,0.47,1.75c0.12,0.51,0.19,0.94,0.19,1.13
		c0,0.39,0.11,0.76,0.31,1.05c0.29,0.45,0.73,0.71,1.16,0.88c0.44,0.17,0.91,0.23,1.36,0.23c0.36,0,0.7-0.04,1.03-0.14
		c0.32-0.1,0.63-0.23,0.9-0.5c0.21-0.22,0.54-0.61,0.97-1.16c0.64-0.82,1.47-1.95,2.25-3.15c0.77-1.21,1.48-2.49,1.88-3.66
		c0.49-1.44,1.03-3.25,1.52-4.77c0.24-0.76,0.47-1.45,0.67-1.97c0.1-0.26,0.19-0.48,0.27-0.63c0.04-0.08,0.07-0.14,0.1-0.18
		l0.03-0.04l0-0.01l0,0c0.14-0.15,0.23-0.32,0.29-0.49c0.06-0.17,0.08-0.34,0.08-0.5c0-0.37-0.1-0.72-0.25-1.06
		C134.98,65.97,134.61,65.46,134.11,65.06 M135.09,68.54L135.09,68.54C135.09,68.54,135.09,68.54,135.09,68.54z"/>
	<path class="st0" d="M153.99,66.44c-0.75-1.01-1.74-1.81-2.77-2.33c-0.71-0.35-1.46-0.48-2.19-0.48c-1.21,0-2.35,0.34-3.21,0.67
		c-0.86,0.33-1.42,0.65-1.45,0.67l-0.43,0.25v-5.88c0-0.82,0.22-1.52,0.48-2.26c0.26-0.74,0.57-1.54,0.57-2.5
		c0-0.33-0.09-0.64-0.22-0.91c-0.23-0.49-0.59-0.9-1.01-1.28c-0.64-0.56-1.43-1.04-2.24-1.39c-0.81-0.35-1.63-0.58-2.37-0.58
		c-0.8,0-1.49,0.28-1.96,0.73c-0.48,0.45-0.74,1.05-0.74,1.66c0,0.49,0.18,1,0.55,1.38l-0.01-0.01l0,0c0.28,0.28,0.63,0.93,0.87,1.6
		c0.12,0.34,0.22,0.68,0.28,0.98c0.07,0.31,0.1,0.58,0.1,0.75v8.19c0,0.54-0.04,1.47-0.11,2.59c-0.21,3.38-0.62,8.57-0.62,11.74
		c0,0.81,0.02,1.49,0.1,2.01l0.73-0.1l-0.73,0.1c0.14,0.94,0.38,1.6,0.81,2.08c0.21,0.23,0.48,0.4,0.74,0.5
		c0.27,0.1,0.52,0.12,0.76,0.12c0.3,0,0.57-0.04,0.79-0.08c0.23-0.04,0.42-0.06,0.54-0.06c0.3,0,0.59-0.11,0.8-0.27
		c0.37-0.28,0.58-0.64,0.76-1.05c0.26-0.61,0.43-1.34,0.55-2.13c0.11-0.79,0.17-1.62,0.17-2.4c0-1.09,0.1-3.49,0.2-5.94
		c0.1-2.46,0.2-4.99,0.2-6.44v-0.3l0.49,0.23c0.98,0.45,2.07,1.52,2.93,2.69c0.87,1.17,1.53,2.46,1.77,3.22
		c0.19,0.58,0.44,1.21,0.82,1.74c0.19,0.27,0.41,0.51,0.7,0.71c0.28,0.19,0.64,0.33,1.03,0.33c0.49,0,0.96-0.2,1.38-0.54
		c0.43-0.34,0.84-0.82,1.27-1.47c0.64-0.96,0.92-1.98,0.92-2.95C155.27,68.67,154.74,67.44,153.99,66.44"/>
	<path class="st0" d="M86.83,163.55h0.53v-22.09h-0.53h-2.06H84.3l-0.06,0.43c-0.18,1.29-0.67,2.17-1.44,2.77
		c-0.78,0.59-1.9,0.92-3.43,0.92l-0.51-0.01l-0.55-0.02v2.63v0.5h5.21v14.89H86.83z"/>
	<path class="st0" d="M101.64,160.93l-0.2,0l-0.02,0h-0.01c-1.04,0-1.76-0.25-2.27-0.71c-0.51-0.46-0.85-1.18-0.96-2.25l-0.05-0.45
		h-3.14h-0.57l0.04,0.53c0.12,1.81,0.77,3.26,1.96,4.26c1.19,1,2.87,1.51,4.97,1.59l0.02,0l0.02,0c2.64-0.07,4.78-1.2,6.18-3.28
		c1.4-2.07,2.16-5.04,2.33-8.92v-0.01v-0.01c-0.09-3.26-0.77-5.77-2.13-7.52c-1.37-1.75-3.44-2.66-6.02-2.69h-0.02l-0.02,0
		c-2.31,0.12-4.17,0.83-5.45,2.15c-1.28,1.33-1.95,3.21-2.08,5.58v0.02v0.02c0.08,2.26,0.71,4.05,1.96,5.3
		c1.25,1.25,3.07,1.89,5.33,1.97l0.02,0l0.02,0c1.78-0.04,3.22-0.53,4.27-1.41c-0.35,1.78-0.83,3.16-1.43,4.1
		C103.61,160.42,102.75,160.92,101.64,160.93 M104.64,152.11c-0.58,0.68-1.41,1.03-2.63,1.08h-0.21c-1.33,0-2.22-0.33-2.81-0.92
		c-0.59-0.6-0.93-1.54-0.93-2.91v-0.23c0.04-1.42,0.39-2.43,1-3.09c0.6-0.66,1.46-1.03,2.72-1.12c1.27,0.04,2.14,0.39,2.75,1.01
		c0.62,0.62,0.99,1.59,1.07,2.96C105.57,150.37,105.21,151.44,104.64,152.11"/>
	<path class="st0" d="M121.2,163.55h3.2h0.53v-5.04h2.74h0.53v-0.48v-2.17v-0.49h-3.27v-13.4h-2.83h-0.28l-10.18,13.39v2.67v0.48
		h9.57V163.55z M115.7,155.37l5.51-7.49v7.49H115.7z"/>
	<path class="st0" d="M137.31,141.46h-0.02l-0.02,0c-2.31,0.12-4.17,0.83-5.45,2.15c-1.28,1.33-1.95,3.21-2.08,5.58v0.02v0.02
		c0.08,2.26,0.71,4.05,1.96,5.3c1.24,1.25,3.06,1.89,5.33,1.97l0.02,0l0.02,0c1.77-0.04,3.22-0.53,4.27-1.41
		c-0.35,1.78-0.83,3.16-1.44,4.1c-0.78,1.21-1.65,1.72-2.75,1.72l-0.2,0l-0.01,0h-0.02c-1.04,0-1.76-0.25-2.26-0.71
		c-0.51-0.46-0.85-1.18-0.96-2.25l-0.05-0.45h-3.14h-0.56l0.04,0.53c0.12,1.81,0.77,3.26,1.96,4.26c1.19,1,2.87,1.51,4.97,1.59
		l0.02,0l0.03,0c2.64-0.07,4.77-1.2,6.18-3.28c1.41-2.07,2.16-5.04,2.33-8.92v-0.01v-0.01c-0.09-3.26-0.77-5.77-2.13-7.52
		C141.96,142.4,139.89,141.5,137.31,141.46 M140.16,152.11c-0.58,0.68-1.41,1.03-2.63,1.08h-0.21c-1.33,0-2.22-0.33-2.81-0.92
		c-0.58-0.6-0.93-1.54-0.93-2.91l0-0.23c0.04-1.42,0.39-2.43,1-3.09c0.59-0.66,1.46-1.03,2.73-1.12c1.26,0.04,2.14,0.39,2.75,1.01
		c0.61,0.62,0.99,1.59,1.07,2.96C141.09,150.37,140.74,151.44,140.16,152.11"/>
	<path class="st0" d="M59.62,122.84c-5.33-2.64-8.91-2.11-8.91-2.11c-7.44,1.6-3.4,6.6-3.4,6.6c4.01,3.38,11.27,0.04,11.27,0.04
		c6.08,3.67,11.09-0.26,11.09-0.26c11.42-2.19,6.23-11.87,6.23-11.87c-1.37-3.06-8.59-8.3-13.52-10.05c-3.64-1.29-2.33-5.67,0-5.9
		c2.32-0.22,1.86,0.89,4.9,1.64c3.04,0.74,5.87-2.23,5.73-3.42c-0.11-0.92-1.43-0.5-2.02-0.27c0.26-0.11,0.46-0.2-0.63,0.27
		c-1.64,0.7-3.94-0.63-3.94-0.63c-3.72-2.34-4.54-1.52-4.54-1.52c-13,4.19-15.07,12.46-15.07,12.46c-0.11,7.64,6.19,8.01,6.19,8.01
		c11.74,1.78,12.17,4.64,12.17,4.64C68.31,125.25,59.62,122.84,59.62,122.84 M56.25,126.29c-2.29,2.11-5.22,0.89-5.22,0.89
		c-5.3-2.45-0.72-3.6-0.72-3.6c2.79-0.26,5.94,2.45,5.94,2.45V126.29z M62.06,112.05c0,0-3.61-0.87-5.16-1.45
		c-1.59-0.61-7.27-3.49-1.6-8.05l0.49-0.17c0,0-1.39,4.9,5.09,6.63c6.48,1.73,18.46,10.05,10.59,15.46
		C71.47,124.46,73.02,115.93,62.06,112.05"/>
	<path class="st0" d="M127.72,122.84c-5.33-2.64-8.91-2.11-8.91-2.11c-7.44,1.6-3.4,6.6-3.4,6.6c4.01,3.38,11.28,0.04,11.28,0.04
		c6.08,3.67,11.09-0.26,11.09-0.26c11.42-2.19,6.23-11.87,6.23-11.87c-1.37-3.06-8.59-8.3-13.52-10.05c-3.64-1.29-2.33-5.67,0-5.9
		c2.32-0.22,1.86,0.89,4.9,1.64c3.04,0.74,5.87-2.23,5.73-3.42c-0.11-0.92-1.43-0.5-2.02-0.27c0.26-0.11,0.46-0.2-0.64,0.27
		c-1.64,0.7-3.94-0.63-3.94-0.63c-3.72-2.34-4.54-1.52-4.54-1.52c-13,4.19-15.07,12.46-15.07,12.46c-0.1,7.64,6.19,8.01,6.19,8.01
		c11.74,1.78,12.17,4.64,12.17,4.64C136.41,125.25,127.72,122.84,127.72,122.84 M124.35,126.29c-2.29,2.11-5.22,0.89-5.22,0.89
		c-5.3-2.45-0.72-3.6-0.72-3.6c2.79-0.26,5.94,2.45,5.94,2.45V126.29z M130.16,112.05c0,0-3.61-0.87-5.16-1.45
		c-1.59-0.61-7.27-3.49-1.6-8.05l0.49-0.17c0,0-1.39,4.9,5.09,6.63c6.48,1.73,18.46,10.05,10.59,15.46
		C139.57,124.46,141.12,115.93,130.16,112.05"/>
	<path class="st0" d="M102.3,110.54c0.98,3.04,1.21,10.38,0.34,11.99c-0.86,1.61-2.76,0.58-2.76,0.58c1.78-4.71,0-13.54,0-13.54
		c0.52-11.42,3.33-12.68,3.33-12.68c1.78-2.29-0.4-1.55-0.4-1.55c-6.38,2.81-9.94,1.32-9.94,1.32c-12.35-3.67-12.81,7-12.81,7
		l0.03,0.27c0.63,0.76,1.05-0.22,1.05-0.22c4.88-5.57,12.18-2.13,12.18-2.13c-1.84,1.72-1.67,5.97-1.67,5.97
		c-2.7-0.46-6.43,0.17-9.54,2.41c-3.11,2.24-1.49,4.36-1.49,4.36c2.24-1.61,8.39-2.12,8.39-2.12c7.07-0.23,3.67,9.01,3.67,9.01
		c-6.03-0.66-11.12,0.82-12.81,4.71c-1.57,3.62,0.34,2.87,0.34,2.87c2.02-2.81,7.18-3.9,11.09-3.27c3.91,0.63,3.39,2.41,12.3,3.38
		c0.06,0.01,0.12,0.01,0.18,0.02c8.66,0.7,3.62-18.72,3.62-18.72c-1.27-11.47,3.62-13.6,3.62-13.6c1.72-1.43-0.8-1.32-0.8-1.32
		C99.31,95.27,102.3,110.54,102.3,110.54"/>
	<path class="st0" d="M169.99,97.04c0,0-0.04-0.24-0.62-0.33c0,0-8.12,0.57-10.1-1.81c0,0-4.77,3.76-9.3,3.38l-0.02,0l-0.32-0.04
		c0,0-0.94,0.86-0.05,1.57c0,0,3.36,3,9.58,0.62v5.94c0,0-12.83,6.38-9.82,15.56c0,0,6.42,14.08,24.17,3.43c0,0,2.04,3.57,3.12,3.9
		c1.08,0.33,5.66,0.1,4.15-3.61c0,0-2.78-2.19-2.74-4.81V99.9c0,0,3.91-2.57,2.36-4.52c0,0-4.3,2.14-6.04,0.57
		c0,0-1.09-0.24-1.56,0.71c0,0-0.75,1.95-1.46,2.57l-3.52,2.16v-1.69C168.9,99.26,169.83,98.46,169.99,97.04 M157.03,110.94
		c0,0,1.09-1.13,2.15-1.11l-0.02,0.89v4.82c0,0-0.09,5.11-3.87,5.55C155.29,121.08,151.74,117.18,157.03,110.94 M156.59,122.58
		c0,0,6.79-0.98,7.83-7.93v-7.87l0.97-0.62v18.8C162.85,125.21,159.83,124.73,156.59,122.58 M172.28,101.74l0.48,0.22v19.88
		c0,0-1.89,1.72-4.91,2.63v-19.89L172.28,101.74z M165.39,102.91l-0.83,0.51v-3.14c0,0,0.33,0.01,0.83-0.02V102.91z"/>
	<path class="st0" d="M212.95,126.11l-12.24,8.06c0.9-3.84,1.51-7.52,1.92-10.92c12.77-10.69,11.09-18.9,11.09-18.9
		c-1.56-1.17-7.56,5.36-10.36,8.57c0.13-6.31-0.37-10.26-0.37-10.26c-0.16-1.03-0.35-2.04-0.54-3.04
		c8.51-13.2,3.96-19.98,3.96-19.98c-1.72,0.58-5.41,9.23-6.16,11.03c-1.39-4.62-3.1-8.95-5.04-12.98
		c4.62-9.97,0.35-20.26,0.35-20.26c-2.91,2.2-3.99,10.64-4.24,13.03c-2.27-3.8-4.72-7.29-7.25-10.48c1.68-11.16-5.52-20.2-5.52-20.2
		c-0.9-1.48-1.22,0-1.22,0c-0.39,8.41,1.6,13.99,1.6,13.99l0.13,0.37c-2.9-3.14-5.82-5.91-8.61-8.32c0.05-2.44-0.83-8.42-8.79-16.37
		c0,0-1.33-1.22-1.24,1.03c0,0-0.15,4.29,1.24,8.5c-5.45-3.81-9.18-5.63-9.18-5.63c-10.23-8.13-21.94-5.3-21.94-5.3
		c-2.76,0.2-1.38,1.07-1.38,1.07c6.71,7.98,20.53,9.08,20.53,9.08c3.84,1.84,7.38,3.82,10.66,5.9c-3.51-0.23-9.53-0.28-12.22,1.79
		c0,0-1.15,0.77,1.03,1.67c0,0,9.54,3.85,18.52,1.71c3.05,2.38,5.82,4.87,8.31,7.42c-3.05-0.51-10.8-1.38-15.22,1.91
		c0,0-0.77,0.32,0,0.9c0,0,4.3,4.23,20.54,3.19c2.69,3.37,4.98,6.82,6.93,10.29c-2.26-0.71-10.77-3.11-17.01-1.29
		c0,0-0.71,0.9,1.09,1.86c0,0,10.2,7.26,19.23,6c2.22,4.99,3.81,9.93,4.92,14.64c-7.32-5.08-14.46-5.29-14.46-5.29
		c-2.18-0.45-1.6,0.9-1.6,0.9c7.87,8.76,14.73,10.84,17.42,11.33c0.81,5.28,1.08,10.1,1.07,14.14c-6.58-7.35-14.7-11.16-14.7-11.16
		c-1.48-0.71-1.22,0.64-1.22,0.64c4.58,9.06,13.15,15.88,15.62,17.73c-0.28,3.33-0.66,5.27-0.66,5.27
		c-0.55,2.42-1.17,4.73-1.84,6.96c-1.3-1.85-6.02-8.08-11.9-9.87c0,0,0.53,9.75,9.52,16.91c-1.49,3.91-3.13,7.49-4.88,10.77
		l-0.02-0.01c0,0-2.12-13.22-6.55-15.6c0,0-3.11,9.25,2.51,22.47c-2.07,3.16-4.21,5.96-6.32,8.44c-2.11-18.5-4.27-16.34-4.27-16.34
		c-4.02,3.57-0.95,17.82-0.17,21.13c-6.35,6.28-11.85,9.53-13.85,10.6l-6.12-10.8h-0.9h-35.73l-4.04,3.61l-4.05-3.61H72.71
		l-0.45,0.79l-5.69,10.04c-1.97-1.05-7.5-4.29-13.88-10.62c0.78-3.31,3.85-17.56-0.17-21.13c0,0-2.16-2.16-4.27,16.34
		c-2.11-2.47-4.25-5.27-6.32-8.43c5.61-13.23,2.51-22.47,2.51-22.47c-4.43,2.37-6.55,15.6-6.55,15.6l-0.02,0.01
		c-1.75-3.28-3.39-6.86-4.88-10.77c8.99-7.16,9.52-16.91,9.52-16.91c-5.88,1.79-10.6,8.02-11.9,9.87c-0.67-2.23-1.28-4.55-1.84-6.96
		c0,0-0.38-1.94-0.66-5.27c2.47-1.84,11.04-8.67,15.62-17.73c0,0,0.26-1.35-1.22-0.64c0,0-8.13,3.81-14.7,11.16
		c0-4.04,0.26-8.86,1.07-14.14c2.68-0.49,9.55-2.57,17.42-11.33c0,0,0.58-1.35-1.6-0.9c0,0-7.14,0.21-14.46,5.29
		c1.11-4.71,2.7-9.65,4.93-14.64c9.03,1.26,19.23-6,19.23-6c1.8-0.96,1.09-1.86,1.09-1.86c-6.24-1.82-14.75,0.58-17.01,1.29
		c1.95-3.46,4.24-6.91,6.93-10.29c16.24,1.03,20.54-3.19,20.54-3.19c0.77-0.58,0-0.9,0-0.9c-4.41-3.3-12.16-2.42-15.22-1.91
		c2.5-2.55,5.26-5.03,8.31-7.42c8.98,2.14,18.52-1.71,18.52-1.71c2.18-0.9,1.03-1.67,1.03-1.67c-2.69-2.07-8.72-2.02-12.22-1.79
		c3.27-2.08,6.82-4.05,10.66-5.9c0,0,13.82-1.09,20.53-9.08c0,0,1.38-0.88-1.38-1.07c0,0-11.72-2.83-21.95,5.3
		c0,0-3.73,1.82-9.18,5.63c1.39-4.21,1.24-8.5,1.24-8.5c0.09-2.25-1.24-1.03-1.24-1.03c-7.95,7.95-8.83,13.93-8.79,16.37
		c-2.78,2.41-5.7,5.18-8.6,8.32l0.13-0.37c0,0,1.99-5.58,1.61-13.99c0,0-0.32-1.48-1.22,0c0,0-7.2,9.04-5.52,20.2
		c-2.53,3.19-4.98,6.68-7.25,10.48c-0.25-2.39-1.33-10.83-4.24-13.03c0,0-4.27,10.29,0.35,20.26c-1.94,4.03-3.65,8.35-5.04,12.98
		c-0.75-1.8-4.44-10.45-6.16-11.03c0,0-4.55,6.78,3.96,19.98c-0.19,1-0.37,2.01-0.54,3.04c0,0-0.5,3.95-0.37,10.26
		c-2.79-3.21-8.8-9.74-10.36-8.57c0,0-1.68,8.21,11.09,18.9c0.41,3.4,1.02,7.08,1.92,10.92l-12.24-8.06
		c2.12,11.55,15.18,18.1,15.18,18.1c1.07,3.01,2.34,6.06,3.84,9.1c-2.54-1.23-11.42-5.34-13.95-4.03c0,0,3.95,9.44,17.89,11.1
		c2.02,3.22,4.34,6.39,6.99,9.45l-0.17-0.08c0,0-9.11-2.63-14.76-1.03c0,0,2.5,6.16,21.5,7.83l0.03-0.03
		c4.12,3.69,8.86,7.11,14.3,10.15l-4.87,8.6h47.23l0.11,0.1l-9.78,9.78l3.11,3.11l9.95-9.95l3.02,2.7v0l3.02-2.7l9.95,9.95
		l3.11-3.11l-9.78-9.78l0.11-0.1h47.23l-4.88-8.62c5.43-3.04,10.16-6.45,14.27-10.13l0.03,0.03c19-1.67,21.5-7.83,21.5-7.83
		c-5.65-1.6-14.76,1.03-14.76,1.03l-0.17,0.08c2.66-3.06,4.97-6.23,6.99-9.45c13.94-1.66,17.89-11.1,17.89-11.1
		c-2.52-1.31-11.41,2.8-13.95,4.03c1.5-3.04,2.77-6.09,3.84-9.1C197.77,144.21,210.83,137.66,212.95,126.11 M74.51,175.47h33.64
		l0.85,0.75l4.38,4.19l4.44-4.24l0.78-0.7h33.65l7.55,13.33h-42.42l-4,3.58l-4-3.58H66.96L74.51,175.47z M118.66,192.18l-5.28,5.05
		l-5.28-5.05H65.04l1.1-1.95h42.68l4.55,4.07l4.54-4.07h42.69l1.11,1.95H118.66z"/>
	<g>
		<path class="st0" d="M306.64,185.93c-0.23-2.14-1.61-4.17-3.88-4.17c-2.6,0-4.04,1.54-4.04,4.14c0,5.45,9.86,3.81,9.86,11.7
			c0,4.53-3.75,6.9-7.95,6.9c-1.84,0-3.61-0.66-5.22-1.48c-0.16-1.68-0.39-3.32-0.56-4.99l0.92-0.2c0.39,2.79,1.97,5.22,5.09,5.22
			c2.23,0,4.04-1.41,4.04-3.75c0-5.81-9.66-4.01-9.66-11.92c0-4.27,3.02-6.8,7.26-6.8c0.92,0,3.71,0.36,4.73,0.49
			c0,1.54,0.13,3.12,0.33,4.7L306.64,185.93z"/>
		<path class="st0" d="M317.64,201.14c0,1.77,1.38,1.87,2.56,1.87h0.62V204c-1.45,0-3.55-0.13-5.32-0.13
			c-1.68,0-3.65,0.13-4.96,0.13v-0.99h0.46c1.18,0,2.43-0.16,2.43-1.87v-17.21c0-1.71-1.25-1.87-2.43-1.87h-0.46v-0.99
			c1.31,0,3.29,0.13,4.96,0.13c1.77,0,3.88-0.13,5.32-0.13v0.99h-0.62c-1.18,0-2.56,0.1-2.56,1.87v7.19h11.93v-7.19
			c0-1.77-1.38-1.87-2.56-1.87h-0.62v-0.99c1.45,0,3.55,0.13,5.32,0.13c1.68,0,3.65-0.13,4.96-0.13v0.99h-0.46
			c-1.18,0-2.43,0.16-2.43,1.87v17.21c0,1.71,1.25,1.87,2.43,1.87h0.46V204c-1.31,0-3.29-0.13-4.96-0.13
			c-1.77,0-3.88,0.13-5.32,0.13v-0.99h0.62c1.18,0,2.56-0.1,2.56-1.87v-8.18h-11.93V201.14z"/>
		<path class="st0" d="M343.1,199.3c-0.33,1.12-0.72,1.97-0.72,2.56c0,0.99,1.38,1.15,2.46,1.15h0.36V204
			c-1.31-0.07-2.66-0.13-3.98-0.13c-1.18,0-2.37,0.07-3.55,0.13v-0.99h0.2c1.28,0,2.37-0.76,2.86-2.14l5.26-15.08
			c0.43-1.22,1.02-2.86,1.22-4.07c1.05-0.36,2.37-1.02,2.99-1.41c0.1-0.03,0.16-0.07,0.26-0.07s0.16,0,0.23,0.1
			c0.1,0.26,0.2,0.56,0.3,0.82l6.04,17.18c0.39,1.15,0.79,2.37,1.22,3.35c0.39,0.92,1.08,1.31,2.17,1.31h0.2V204
			c-1.48-0.07-2.96-0.13-4.53-0.13c-1.61,0-3.25,0.07-4.93,0.13v-0.99h0.36c0.76,0,2.04-0.13,2.04-0.95c0-0.43-0.3-1.31-0.66-2.37
			l-1.28-3.81h-7.46L343.1,199.3z M347.9,184.75h-0.07l-3.06,9.3h6.14L347.9,184.75z"/>
		<path class="st0" d="M382.79,197.53l0.07-0.07v-12.32c0-2.69-1.87-3.09-2.86-3.09h-0.72v-0.99c1.54,0,3.06,0.13,4.6,0.13
			c1.35,0,2.69-0.13,4.04-0.13v0.99h-0.49c-1.38,0-2.92,0.26-2.92,4.17v14.95c0,1.15,0.03,2.3,0.2,3.32h-1.25l-16.92-18.86v13.54
			c0,2.86,0.56,3.84,3.09,3.84h0.56V204c-1.41,0-2.83-0.13-4.24-0.13c-1.48,0-2.99,0.13-4.47,0.13v-0.99h0.46
			c2.27,0,2.96-1.54,2.96-4.17v-13.83c0-1.84-1.51-2.96-2.99-2.96h-0.43v-0.99c1.25,0,2.53,0.13,3.78,0.13
			c0.99,0,1.94-0.13,2.92-0.13L382.79,197.53z"/>
		<path class="st0" d="M410.71,187.48c-0.99-4.04-3.78-5.45-7.62-5.45c-5.88,0-8.77,4.34-8.77,9.82c0,5.42,2.6,11.2,8.87,11.2
			c1.58,0.03,3.22-0.23,3.65-0.62v-5.35c0-1.35-1.28-1.68-2.5-1.68h-0.43v-0.99c1.64,0.07,3.29,0.13,4.93,0.13
			c1.48,0,2.92-0.07,4.4-0.13v0.99h-0.43c-1.15,0-1.77,0.53-1.77,1.68v4.99l0.76,0.43v0.59c-2.92,0.82-5.78,1.41-9.17,1.41
			c-7.36,0-12.91-4.4-12.91-12.32c0-7.62,6.5-11.6,13.14-11.6c2.04,0,3.45,0.3,4.73,0.59c1.28,0.3,2.4,0.59,3.71,0.62
			c0,1.22,0,3.71,0.39,5.62L410.71,187.48z"/>
		<path class="st0" d="M421.65,201.14c0,1.77,1.38,1.87,2.56,1.87h0.62V204c-1.45,0-3.55-0.13-5.32-0.13
			c-1.68,0-3.65,0.13-4.96,0.13v-0.99h0.46c1.18,0,2.43-0.16,2.43-1.87v-17.21c0-1.71-1.25-1.87-2.43-1.87h-0.46v-0.99
			c1.31,0,3.29,0.13,4.96,0.13c1.77,0,3.88-0.13,5.32-0.13v0.99h-0.62c-1.18,0-2.56,0.1-2.56,1.87v7.19h11.93v-7.19
			c0-1.77-1.38-1.87-2.56-1.87h-0.62v-0.99c1.45,0,3.55,0.13,5.32,0.13c1.68,0,3.65-0.13,4.96-0.13v0.99h-0.46
			c-1.18,0-2.43,0.16-2.43,1.87v17.21c0,1.71,1.25,1.87,2.43,1.87h0.46V204c-1.31,0-3.29-0.13-4.96-0.13
			c-1.77,0-3.88,0.13-5.32,0.13v-0.99h0.62c1.18,0,2.56-0.1,2.56-1.87v-8.18h-11.93V201.14z"/>
		<path class="st0" d="M447.11,199.3c-0.33,1.12-0.72,1.97-0.72,2.56c0,0.99,1.38,1.15,2.46,1.15h0.36V204
			c-1.31-0.07-2.66-0.13-3.98-0.13c-1.18,0-2.37,0.07-3.55,0.13v-0.99h0.2c1.28,0,2.37-0.76,2.86-2.14L450,185.8
			c0.43-1.22,1.02-2.86,1.22-4.07c1.05-0.36,2.37-1.02,2.99-1.41c0.1-0.03,0.16-0.07,0.26-0.07c0.1,0,0.16,0,0.23,0.1
			c0.1,0.26,0.2,0.56,0.3,0.82l6.05,17.18c0.39,1.15,0.79,2.37,1.22,3.35c0.39,0.92,1.08,1.31,2.17,1.31h0.2V204
			c-1.48-0.07-2.96-0.13-4.53-0.13c-1.61,0-3.25,0.07-4.93,0.13v-0.99h0.36c0.76,0,2.04-0.13,2.04-0.95c0-0.43-0.3-1.31-0.66-2.37
			l-1.28-3.81h-7.46L447.11,199.3z M451.9,184.75h-0.07l-3.06,9.3h6.14L451.9,184.75z"/>
		<path class="st0" d="M465.47,203.01h0.46c1.18,0,2.43-0.16,2.43-1.87v-17.21c0-1.71-1.25-1.87-2.43-1.87h-0.46v-0.99
			c1.28,0,3.25,0.13,4.86,0.13c1.64,0,3.61-0.13,5.16-0.13v0.99h-0.46c-1.18,0-2.43,0.16-2.43,1.87v17.21
			c0,1.71,1.25,1.87,2.43,1.87h0.46V204c-1.58,0-3.55-0.13-5.19-0.13c-1.61,0-3.55,0.13-4.83,0.13V203.01z"/>
		<path class="st0" d="M485.54,203.01H486c1.18,0,2.43-0.16,2.43-1.87v-17.21c0-1.71-1.25-1.87-2.43-1.87h-0.46v-0.99
			c1.28,0,3.25,0.13,4.86,0.13c1.64,0,3.61-0.13,5.16-0.13v0.99h-0.46c-1.18,0-2.43,0.16-2.43,1.87v17.21
			c0,1.71,1.25,1.87,2.43,1.87h0.46V204c-1.58,0-3.55-0.13-5.19-0.13c-1.61,0-3.55,0.13-4.83,0.13V203.01z"/>
		<path class="st0" d="M517.8,197.53l0.07-0.07v-12.32c0-2.69-1.87-3.09-2.86-3.09h-0.72v-0.99c1.54,0,3.06,0.13,4.6,0.13
			c1.35,0,2.69-0.13,4.04-0.13v0.99h-0.49c-1.38,0-2.92,0.26-2.92,4.17v14.95c0,1.15,0.03,2.3,0.2,3.32h-1.25l-16.92-18.86v13.54
			c0,2.86,0.56,3.84,3.09,3.84h0.56V204c-1.41,0-2.83-0.13-4.24-0.13c-1.48,0-2.99,0.13-4.47,0.13v-0.99h0.46
			c2.27,0,2.96-1.54,2.96-4.17v-13.83c0-1.84-1.51-2.96-2.99-2.96h-0.43v-0.99c1.25,0,2.53,0.13,3.78,0.13
			c0.99,0,1.94-0.13,2.92-0.13L517.8,197.53z"/>
		<path class="st0" d="M527.85,182.71c-2.46,0-2.56,0.59-3.06,2.99h-0.99c0.13-0.92,0.3-1.84,0.39-2.79c0.13-0.92,0.2-1.84,0.2-2.79
			h0.79c0.26,0.99,1.08,0.95,1.97,0.95h16.95c0.89,0,1.71-0.03,1.77-1.02l0.79,0.13c-0.13,0.89-0.26,1.77-0.36,2.66
			c-0.07,0.89-0.07,1.77-0.07,2.66l-0.99,0.36c-0.07-1.21-0.23-3.15-2.43-3.15h-5.39v17.48c0,2.53,1.15,2.83,2.73,2.83h0.62V204
			c-1.28,0-3.58-0.13-5.35-0.13c-1.97,0-4.27,0.13-5.55,0.13v-0.99h0.62c1.81,0,2.73-0.16,2.73-2.76v-17.54H527.85z"/>
		<path class="st0" d="M547.72,203.01h0.46c1.18,0,2.43-0.16,2.43-1.87v-17.21c0-1.71-1.25-1.87-2.43-1.87h-0.46v-0.99
			c2,0,5.42,0.13,8.18,0.13c2.76,0,6.18-0.13,8.41-0.13c-0.07,1.41-0.03,3.58,0.07,5.03l-0.99,0.26c-0.16-2.14-0.56-3.84-4.01-3.84
			h-4.57v8.61h3.91c1.97,0,2.4-1.12,2.6-2.89h0.99c-0.07,1.28-0.1,2.56-0.1,3.84c0,1.25,0.03,2.5,0.1,3.75l-0.99,0.2
			c-0.2-1.97-0.3-3.25-2.56-3.25h-3.94v7.65c0,2.14,1.91,2.14,4.01,2.14c3.94,0,5.68-0.26,6.67-4.01l0.92,0.23
			c-0.43,1.74-0.82,3.48-1.12,5.22c-2.1,0-5.88-0.13-8.84-0.13s-6.87,0.13-8.74,0.13V203.01z"/>
		<path class="st0" d="M570.85,184.55c0-2.4-1.31-2.5-2.33-2.5h-0.59v-0.99c1.05,0,3.09,0.13,5.09,0.13c1.97,0,3.55-0.13,5.29-0.13
			c4.14,0,7.82,1.12,7.82,5.78c0,2.96-1.97,4.76-4.57,5.78l5.62,8.41c0.92,1.38,1.58,1.77,3.19,1.97V204
			c-1.08,0-2.13-0.13-3.22-0.13c-1.02,0-2.07,0.13-3.09,0.13c-2.53-3.32-4.7-6.87-6.83-10.64h-2.17v7.03c0,2.53,1.18,2.63,2.69,2.63
			h0.59V204c-1.87,0-3.78-0.13-5.65-0.13c-1.58,0-3.12,0.13-4.76,0.13v-0.99h0.59c1.22,0,2.33-0.56,2.33-1.77V184.55z
			 M575.05,192.17h1.61c3.29,0,5.06-1.25,5.06-5.13c0-2.92-1.87-4.8-4.8-4.8c-0.99,0-1.41,0.1-1.87,0.13V192.17z"/>
		<path class="st0" d="M612.67,197.53l0.07-0.07v-12.32c0-2.69-1.87-3.09-2.86-3.09h-0.72v-0.99c1.54,0,3.06,0.13,4.6,0.13
			c1.35,0,2.69-0.13,4.04-0.13v0.99h-0.49c-1.38,0-2.92,0.26-2.92,4.17v14.95c0,1.15,0.03,2.3,0.2,3.32h-1.25l-16.92-18.86v13.54
			c0,2.86,0.56,3.84,3.09,3.84h0.56V204c-1.41,0-2.83-0.13-4.24-0.13c-1.48,0-2.99,0.13-4.47,0.13v-0.99h0.46
			c2.27,0,2.96-1.54,2.96-4.17v-13.83c0-1.84-1.51-2.96-2.99-2.96h-0.43v-0.99c1.25,0,2.53,0.13,3.78,0.13
			c0.99,0,1.94-0.13,2.92-0.13L612.67,197.53z"/>
		<path class="st0" d="M623.08,199.3c-0.33,1.12-0.72,1.97-0.72,2.56c0,0.99,1.38,1.15,2.46,1.15h0.36V204
			c-1.31-0.07-2.66-0.13-3.97-0.13c-1.18,0-2.37,0.07-3.55,0.13v-0.99h0.2c1.28,0,2.37-0.76,2.86-2.14l5.26-15.08
			c0.43-1.22,1.02-2.86,1.21-4.07c1.05-0.36,2.37-1.02,2.99-1.41c0.1-0.03,0.16-0.07,0.26-0.07c0.1,0,0.16,0,0.23,0.1
			c0.1,0.26,0.2,0.56,0.3,0.82l6.04,17.18c0.39,1.15,0.79,2.37,1.22,3.35c0.39,0.92,1.08,1.31,2.17,1.31h0.2V204
			c-1.48-0.07-2.96-0.13-4.53-0.13c-1.61,0-3.25,0.07-4.93,0.13v-0.99h0.36c0.76,0,2.04-0.13,2.04-0.95c0-0.43-0.3-1.31-0.66-2.37
			l-1.28-3.81h-7.46L623.08,199.3z M627.88,184.75h-0.07l-3.06,9.3h6.14L627.88,184.75z"/>
		<path class="st0" d="M643.02,182.71c-2.46,0-2.56,0.59-3.05,2.99h-0.99c0.13-0.92,0.3-1.84,0.39-2.79c0.13-0.92,0.2-1.84,0.2-2.79
			h0.79c0.26,0.99,1.08,0.95,1.97,0.95h16.95c0.89,0,1.71-0.03,1.77-1.02l0.79,0.13c-0.13,0.89-0.26,1.77-0.36,2.66
			c-0.07,0.89-0.07,1.77-0.07,2.66l-0.99,0.36c-0.07-1.21-0.23-3.15-2.43-3.15h-5.39v17.48c0,2.53,1.15,2.83,2.73,2.83h0.63V204
			c-1.28,0-3.58-0.13-5.36-0.13c-1.97,0-4.27,0.13-5.55,0.13v-0.99h0.62c1.81,0,2.73-0.16,2.73-2.76v-17.54H643.02z"/>
		<path class="st0" d="M662.73,203.01h0.46c1.18,0,2.43-0.16,2.43-1.87v-17.21c0-1.71-1.25-1.87-2.43-1.87h-0.46v-0.99
			c1.28,0,3.25,0.13,4.86,0.13c1.64,0,3.61-0.13,5.16-0.13v0.99h-0.46c-1.18,0-2.43,0.16-2.43,1.87v17.21
			c0,1.71,1.25,1.87,2.43,1.87h0.46V204c-1.58,0-3.55-0.13-5.19-0.13c-1.61,0-3.55,0.13-4.83,0.13V203.01z"/>
		<path class="st0" d="M686.68,180.58c7,0,12.58,4.34,12.58,11.33c0,7.56-5.42,12.58-12.42,12.58c-6.96,0-12.29-4.73-12.29-11.79
			C674.55,185.87,679.84,180.58,686.68,180.58z M687.17,203.05c6.37,0,7.49-5.62,7.49-10.41c0-4.8-2.59-10.61-8.05-10.61
			c-5.75,0-7.46,5.13-7.46,9.53C679.15,197.43,681.85,203.05,687.17,203.05z"/>
		<path class="st0" d="M722.38,197.53l0.07-0.07v-12.32c0-2.69-1.87-3.09-2.86-3.09h-0.72v-0.99c1.54,0,3.06,0.13,4.6,0.13
			c1.35,0,2.69-0.13,4.04-0.13v0.99h-0.49c-1.38,0-2.92,0.26-2.92,4.17v14.95c0,1.15,0.03,2.3,0.2,3.32h-1.25l-16.92-18.86v13.54
			c0,2.86,0.56,3.84,3.09,3.84h0.56V204c-1.41,0-2.83-0.13-4.24-0.13c-1.48,0-2.99,0.13-4.47,0.13v-0.99h0.46
			c2.27,0,2.96-1.54,2.96-4.17v-13.83c0-1.84-1.51-2.96-2.99-2.96h-0.43v-0.99c1.25,0,2.53,0.13,3.78,0.13
			c0.99,0,1.94-0.13,2.92-0.13L722.38,197.53z"/>
		<path class="st0" d="M732.8,199.3c-0.33,1.12-0.72,1.97-0.72,2.56c0,0.99,1.38,1.15,2.46,1.15h0.36V204
			c-1.31-0.07-2.66-0.13-3.97-0.13c-1.18,0-2.37,0.07-3.55,0.13v-0.99h0.2c1.28,0,2.37-0.76,2.86-2.14l5.26-15.08
			c0.43-1.22,1.02-2.86,1.21-4.07c1.05-0.36,2.37-1.02,2.99-1.41c0.1-0.03,0.16-0.07,0.26-0.07c0.1,0,0.16,0,0.23,0.1
			c0.1,0.26,0.2,0.56,0.3,0.82l6.04,17.18c0.39,1.15,0.79,2.37,1.22,3.35c0.39,0.92,1.08,1.31,2.17,1.31h0.2V204
			c-1.48-0.07-2.96-0.13-4.53-0.13c-1.61,0-3.25,0.07-4.93,0.13v-0.99h0.36c0.76,0,2.04-0.13,2.04-0.95c0-0.43-0.3-1.31-0.66-2.37
			l-1.28-3.81h-7.46L732.8,199.3z M737.59,184.75h-0.07l-3.06,9.3h6.14L737.59,184.75z"/>
		<path class="st0" d="M758.58,200.78c0,1.31,0.92,1.71,1.97,1.84c1.35,0.1,2.83,0.1,4.34-0.07c1.38-0.16,2.56-0.95,3.15-1.77
			c0.53-0.72,0.82-1.64,1.02-2.37h0.95c-0.36,1.87-0.82,3.71-1.22,5.59c-2.89,0-5.78-0.13-8.67-0.13c-2.89,0-5.78,0.13-8.67,0.13
			v-0.99h0.46c1.18,0,2.46-0.16,2.46-2.2v-16.89c0-1.71-1.28-1.87-2.46-1.87h-0.46v-0.99c1.74,0,3.45,0.13,5.19,0.13
			c1.68,0,3.32-0.13,4.99-0.13v0.99h-0.82c-1.25,0-2.23,0.03-2.23,1.77V200.78z"/>
		<path class="st0" d="M793.04,185.93c-0.23-2.14-1.61-4.17-3.88-4.17c-2.6,0-4.04,1.54-4.04,4.14c0,5.45,9.86,3.81,9.86,11.7
			c0,4.53-3.75,6.9-7.95,6.9c-1.84,0-3.61-0.66-5.22-1.48c-0.16-1.68-0.39-3.32-0.56-4.99l0.92-0.2c0.39,2.79,1.97,5.22,5.09,5.22
			c2.23,0,4.04-1.41,4.04-3.75c0-5.81-9.66-4.01-9.66-11.92c0-4.27,3.02-6.8,7.26-6.8c0.92,0,3.71,0.36,4.73,0.49
			c0,1.54,0.13,3.12,0.33,4.7L793.04,185.93z"/>
		<path class="st0" d="M800.79,182.71c-2.46,0-2.56,0.59-3.05,2.99h-0.99c0.13-0.92,0.3-1.84,0.39-2.79c0.13-0.92,0.2-1.84,0.2-2.79
			h0.79c0.26,0.99,1.08,0.95,1.97,0.95h16.95c0.89,0,1.71-0.03,1.77-1.02l0.79,0.13c-0.13,0.89-0.26,1.77-0.36,2.66
			c-0.07,0.89-0.07,1.77-0.07,2.66l-0.99,0.36c-0.07-1.21-0.23-3.15-2.43-3.15h-5.39v17.48c0,2.53,1.15,2.83,2.73,2.83h0.63V204
			c-1.28,0-3.58-0.13-5.36-0.13c-1.97,0-4.27,0.13-5.55,0.13v-0.99h0.62c1.81,0,2.73-0.16,2.73-2.76v-17.54H800.79z"/>
		<path class="st0" d="M823.56,184.45c0-2.37-1.22-2.4-2.53-2.4h-0.39v-0.99c1.41,0,3.15,0.13,5.22,0.13c1.97,0,3.61-0.13,4.93-0.13
			v0.99h-0.39c-1.31,0-2.63,0.03-2.63,2.4v11.33c0,4.17,1.54,7.06,6.24,7.06c4.34,0,6.24-2.76,6.24-7.2v-11.2
			c0-2.37-1.25-2.4-2.37-2.4h-0.66v-0.99c1.31,0,2.66,0.13,3.98,0.13c1.28,0,2.53-0.13,3.81-0.13v0.99h-0.69
			c-0.89,0-2.1,0.03-2.1,2.4v10.48c0,7.42-3.94,9.56-8.84,9.56c-6.31,0-9.82-2.3-9.82-8.18V184.45z"/>
		<path class="st0" d="M846.23,203.01h0.46c1.18,0,2.43-0.16,2.43-1.87v-17.21c0-1.71-1.25-1.87-2.43-1.87h-0.46v-0.99
			c0.99,0,3.15,0.13,5.26,0.13c2.1,0,3.88-0.13,5.29-0.13c8.08,0,13.04,4.53,13.04,11.4c0,6.57-5.52,11.93-12.19,11.53
			c-1.45-0.07-3.75-0.13-5.98-0.13c-2.23,0-4.57,0.13-5.42,0.13V203.01z M853.32,200.22c0,2.3,1.05,2.6,3.42,2.6
			c5.58,0,8.48-4.67,8.48-9.72c0-8.67-4.4-10.84-9.66-10.84c-0.76,0-1.51,0.1-2.23,0.16V200.22z"/>
		<path class="st0" d="M871.62,203.01h0.46c1.18,0,2.43-0.16,2.43-1.87v-17.21c0-1.71-1.25-1.87-2.43-1.87h-0.46v-0.99
			c1.28,0,3.25,0.13,4.86,0.13c1.64,0,3.61-0.13,5.16-0.13v0.99h-0.46c-1.18,0-2.43,0.16-2.43,1.87v17.21
			c0,1.71,1.25,1.87,2.43,1.87h0.46V204c-1.58,0-3.55-0.13-5.19-0.13c-1.61,0-3.55,0.13-4.83,0.13V203.01z"/>
		<path class="st0" d="M882.72,203.01h0.46c1.18,0,2.43-0.16,2.43-1.87v-17.21c0-1.71-1.25-1.87-2.43-1.87h-0.46v-0.99
			c2,0,5.42,0.13,8.18,0.13c2.76,0,6.18-0.13,8.41-0.13c-0.07,1.41-0.03,3.58,0.07,5.03l-0.99,0.26c-0.16-2.14-0.56-3.84-4.01-3.84
			h-4.57v8.61h3.91c1.97,0,2.4-1.12,2.59-2.89h0.99c-0.07,1.28-0.1,2.56-0.1,3.84c0,1.25,0.03,2.5,0.1,3.75l-0.99,0.2
			c-0.2-1.97-0.29-3.25-2.56-3.25h-3.94v7.65c0,2.14,1.91,2.14,4.01,2.14c3.94,0,5.68-0.26,6.67-4.01l0.92,0.23
			c-0.43,1.74-0.82,3.48-1.12,5.22c-2.1,0-5.88-0.13-8.84-0.13c-2.96,0-6.87,0.13-8.74,0.13V203.01z"/>
		<path class="st0" d="M915.31,185.93c-0.23-2.14-1.61-4.17-3.88-4.17c-2.6,0-4.04,1.54-4.04,4.14c0,5.45,9.86,3.81,9.86,11.7
			c0,4.53-3.75,6.9-7.95,6.9c-1.84,0-3.61-0.66-5.22-1.48c-0.16-1.68-0.39-3.32-0.56-4.99l0.92-0.2c0.39,2.79,1.97,5.22,5.09,5.22
			c2.23,0,4.04-1.41,4.04-3.75c0-5.81-9.66-4.01-9.66-11.92c0-4.27,3.02-6.8,7.26-6.8c0.92,0,3.71,0.36,4.73,0.49
			c0,1.54,0.13,3.12,0.33,4.7L915.31,185.93z"/>
		<path class="st0" d="M931.24,184.45c0-2.37-1.22-2.4-2.53-2.4h-0.39v-0.99c1.41,0,3.15,0.13,5.22,0.13c1.97,0,3.61-0.13,4.93-0.13
			v0.99h-0.39c-1.31,0-2.63,0.03-2.63,2.4v11.33c0,4.17,1.54,7.06,6.24,7.06c4.34,0,6.24-2.76,6.24-7.2v-11.2
			c0-2.37-1.25-2.4-2.37-2.4h-0.66v-0.99c1.31,0,2.66,0.13,3.98,0.13c1.28,0,2.53-0.13,3.81-0.13v0.99H952c-0.89,0-2.1,0.03-2.1,2.4
			v10.48c0,7.42-3.94,9.56-8.84,9.56c-6.31,0-9.82-2.3-9.82-8.18V184.45z"/>
		<path class="st0" d="M975.06,197.53l0.07-0.07v-12.32c0-2.69-1.87-3.09-2.86-3.09h-0.72v-0.99c1.54,0,3.06,0.13,4.6,0.13
			c1.35,0,2.69-0.13,4.04-0.13v0.99h-0.49c-1.38,0-2.92,0.26-2.92,4.17v14.95c0,1.15,0.03,2.3,0.2,3.32h-1.25l-16.92-18.86v13.54
			c0,2.86,0.56,3.84,3.09,3.84h0.56V204c-1.41,0-2.83-0.13-4.24-0.13c-1.48,0-2.99,0.13-4.47,0.13v-0.99h0.46
			c2.27,0,2.96-1.54,2.96-4.17v-13.83c0-1.84-1.51-2.96-2.99-2.96h-0.43v-0.99c1.25,0,2.53,0.13,3.78,0.13
			c0.99,0,1.94-0.13,2.92-0.13L975.06,197.53z"/>
		<path class="st0" d="M981.11,203.01h0.46c1.18,0,2.43-0.16,2.43-1.87v-17.21c0-1.71-1.25-1.87-2.43-1.87h-0.46v-0.99
			c1.28,0,3.25,0.13,4.86,0.13c1.64,0,3.61-0.13,5.16-0.13v0.99h-0.46c-1.18,0-2.43,0.16-2.43,1.87v17.21
			c0,1.71,1.25,1.87,2.43,1.87h0.46V204c-1.58,0-3.55-0.13-5.19-0.13c-1.61,0-3.55,0.13-4.83,0.13V203.01z"/>
		<path class="st0" d="M1001.74,182.05h-0.76c-1.21,0-1.71,0.49-1.71,0.92c0,0.16,0.13,0.62,0.3,1.05l5.62,14.62h0.07l5.22-13.67
			c0.39-1.02,0.43-1.61,0.43-1.84c0-0.95-0.99-1.08-2.1-1.08h-0.56v-0.99c1.15,0,2.4,0.13,3.81,0.13c1.02,0,2.07-0.13,3.02-0.13
			v0.99h-0.33c-0.59,0-1.22,0.1-1.74,1.15c-0.26,0.46-5.06,12.58-7.2,18.04c-0.43,1.08-0.95,2.17-1.35,3.25h-1.22l-8.34-20.57
			c-0.62-1.54-1.31-1.87-2.76-1.87h-0.33v-0.99c1.68,0,3.38,0.13,5.06,0.13c1.61,0,3.91-0.13,4.86-0.13V182.05z"/>
		<path class="st0" d="M1015.93,203.01h0.46c1.18,0,2.43-0.16,2.43-1.87v-17.21c0-1.71-1.25-1.87-2.43-1.87h-0.46v-0.99
			c2,0,5.42,0.13,8.18,0.13c2.76,0,6.18-0.13,8.41-0.13c-0.07,1.41-0.03,3.58,0.07,5.03l-0.99,0.26c-0.16-2.14-0.56-3.84-4.01-3.84
			h-4.57v8.61h3.91c1.97,0,2.4-1.12,2.59-2.89h0.99c-0.07,1.28-0.1,2.56-0.1,3.84c0,1.25,0.03,2.5,0.1,3.75l-0.99,0.2
			c-0.2-1.97-0.29-3.25-2.56-3.25h-3.94v7.65c0,2.14,1.91,2.14,4.01,2.14c3.94,0,5.68-0.26,6.67-4.01l0.92,0.23
			c-0.43,1.74-0.82,3.48-1.12,5.22c-2.1,0-5.88-0.13-8.84-0.13c-2.96,0-6.87,0.13-8.74,0.13V203.01z"/>
		<path class="st0" d="M1039.05,184.55c0-2.4-1.31-2.5-2.33-2.5h-0.59v-0.99c1.05,0,3.09,0.13,5.09,0.13c1.97,0,3.55-0.13,5.29-0.13
			c4.14,0,7.82,1.12,7.82,5.78c0,2.96-1.97,4.76-4.57,5.78l5.62,8.41c0.92,1.38,1.58,1.77,3.19,1.97V204
			c-1.08,0-2.13-0.13-3.22-0.13c-1.02,0-2.07,0.13-3.09,0.13c-2.53-3.32-4.7-6.87-6.83-10.64h-2.17v7.03c0,2.53,1.18,2.63,2.69,2.63
			h0.59V204c-1.87,0-3.78-0.13-5.65-0.13c-1.58,0-3.12,0.13-4.76,0.13v-0.99h0.59c1.22,0,2.33-0.56,2.33-1.77V184.55z
			 M1043.26,192.17h1.61c3.29,0,5.06-1.25,5.06-5.13c0-2.92-1.87-4.8-4.8-4.8c-0.99,0-1.41,0.1-1.87,0.13V192.17z"/>
		<path class="st0" d="M1072.23,185.93c-0.23-2.14-1.61-4.17-3.88-4.17c-2.6,0-4.04,1.54-4.04,4.14c0,5.45,9.86,3.81,9.86,11.7
			c0,4.53-3.75,6.9-7.95,6.9c-1.84,0-3.61-0.66-5.22-1.48c-0.16-1.68-0.39-3.32-0.56-4.99l0.92-0.2c0.39,2.79,1.97,5.22,5.09,5.22
			c2.23,0,4.04-1.41,4.04-3.75c0-5.81-9.66-4.01-9.66-11.92c0-4.27,3.02-6.8,7.26-6.8c0.92,0,3.71,0.36,4.73,0.49
			c0,1.54,0.13,3.12,0.33,4.7L1072.23,185.93z"/>
		<path class="st0" d="M1075.98,203.01h0.46c1.18,0,2.43-0.16,2.43-1.87v-17.21c0-1.71-1.25-1.87-2.43-1.87h-0.46v-0.99
			c1.28,0,3.25,0.13,4.86,0.13c1.64,0,3.61-0.13,5.16-0.13v0.99h-0.46c-1.18,0-2.43,0.16-2.43,1.87v17.21
			c0,1.71,1.25,1.87,2.43,1.87h0.46V204c-1.58,0-3.55-0.13-5.19-0.13c-1.61,0-3.55,0.13-4.83,0.13V203.01z"/>
		<path class="st0" d="M1090.92,182.71c-2.46,0-2.56,0.59-3.05,2.99h-0.99c0.13-0.92,0.3-1.84,0.39-2.79
			c0.13-0.92,0.2-1.84,0.2-2.79h0.79c0.26,0.99,1.08,0.95,1.97,0.95h16.95c0.89,0,1.71-0.03,1.77-1.02l0.79,0.13
			c-0.13,0.89-0.26,1.77-0.36,2.66c-0.07,0.89-0.07,1.77-0.07,2.66l-0.99,0.36c-0.07-1.21-0.23-3.15-2.43-3.15h-5.39v17.48
			c0,2.53,1.15,2.83,2.73,2.83h0.63V204c-1.28,0-3.58-0.13-5.36-0.13c-1.97,0-4.27,0.13-5.55,0.13v-0.99h0.62
			c1.81,0,2.73-0.16,2.73-2.76v-17.54H1090.92z"/>
		<path class="st0" d="M1120.62,193.29l-6.57-9c-0.99-1.38-1.61-2.23-3.15-2.23h-0.33v-0.99c1.77,0,3.38,0.13,5.16,0.13
			c1.71,0,3.29-0.13,4.86-0.13v0.99h-0.43c-0.89,0-1.71,0.23-1.71,0.76c0,0.36,0.39,0.79,0.59,1.08l4.96,6.96l4.07-5.88
			c0.59-0.95,1.02-1.51,1.02-2.14c0-0.69-1.41-0.79-1.87-0.79h-0.59v-0.99c1.25,0,2.5,0.13,3.75,0.13c1.05,0,2.1-0.13,3.12-0.13
			v0.99c-1.12,0-2.04,0.79-2.56,1.51l-6.11,8.64v7.85c0,2.79,0.99,2.96,2.73,2.96h0.62V204c-1.94,0-3.91-0.13-5.35-0.13
			c-1.64,0-3.61,0.13-5.55,0.13v-0.99h0.63c1.94,0,2.73-0.53,2.73-2.69V193.29z"/>
	</g>
	<path class="st1" d="M386.15,61.06c-2.41,0.23-4.78,1.8-7.04,1.54c-3.9-0.45-3.86-0.85-7.7-1.83c0,0-5.32-1.34-6.07-1.52
		c-0.04,0.74-0.14,1.48-0.12,2.22c0.28,10.66,0.86,19.67,0.75,30.33c-0.04,3.6-1.66,8.87-2.8,12.4c-1.88,5.84,1.76,6.22,5.89,6.18
		c8.39-0.08,16.81-0.72,25.14-0.08c5.23,0.4,11.46,0.55,14.48,6.17c1.11,2.05,1.02,5.12,0.57,7.56
		c-0.84,4.53-12.62,11.16-17.18,10.66c-4.58-0.51-9.32-0.71-13.87-0.14c-9.29,1.16-18.47,3.16-27.76,4.37
		c-4.75,0.61-9.67-0.08-14.45,0.4c-6.23,0.63-12.39,2.28-18.62,2.63c-4.91,0.27-10.43,0.46-14.71-1.47
		c-7.55-3.41-10.48-18.25-5.02-22.66c1.76-1.42,4.95-1.24,7.52-1.49c7.25-0.71,14.51-1.3,21.77-1.86c5.43-0.42,6.56-4.15,6.69-6.39
		c0.63-10.88,0.54-21.82,1.38-32.68c0.67-8.67,2.48-17.26,3.44-25.92c0.69-6.28,0.37-12.7,1.4-18.91c0.41-2.51,2.71-5.54,5-6.75
		c4.99-2.65,8.15,0.59,10.27,4.93c1.76,3.61,3.04,7.52,5.29,10.77c0.95,1.37,3.94,2.07,5.88,1.88c8.83-0.89,17.59-2.51,26.43-3.16
		c2.73-0.2,7.42,1.22,8.07,3.02c1.25,3.5,1.62,8.56-0.09,11.6C397.82,57.93,392.69,60.43,386.15,61.06"/>
	<path class="st1" d="M457.34,121.86c-0.15-2.74-0.6-5.5-0.33-8.2c0.16-1.59,1.59-3.02,2.17-4.63c0.25-0.68,0.03-1.83-0.44-2.37
		c-0.33-0.39-1.44-0.22-2.18-0.14c-1,0.11-2.11,0.76-2.97,0.51c-5.66-1.68-6.17,2.83-7.64,6.19c-1.91,4.36-3.79,8.74-5.7,13.11
		c-1.57,3.59-3.12,7.19-4.79,10.73c-2.67,5.65-8.98,9.33-15.13,8.1c-1.62-0.32-3.97-3.28-3.85-4.87c0.5-6.87,1.91-13.67,2.77-20.53
		c0.69-5.51,0.95-11.08,1.62-16.6c0.41-3.37,0.53-7.07,2.05-9.94c1.81-3.41,4.77-1.89,6.71,0.53c2.91,3.63,6.26,7.28,4.1,12.55
		c-0.63,1.54-2.08,2.77-2.59,4.32c-0.87,2.66-1.43,5.45-1.8,8.22c-0.11,0.82,0.7,2.43,1.3,2.54c0.88,0.17,2.49-0.42,2.86-1.15
		c3.65-7.25,7.16-14.58,10.62-21.92c1.19-2.52,1.6-6.47,3.3-7.69c0.61-0.44,1.99-0.13,3,0.07c5.05,1.02,10.2,2.47,14.65-1.38
		c1.22-1.06,1.45-3.2,2.3-4.76c3.03-5.65,5.98-11.35,9.25-16.86c2.98-5.02,6.43-9.75,9.44-14.74c0.77-1.28,0.71-1.27,0.54-2.52
		c-0.11-0.81-1.65-1.61-2.55-1.82c-5.32-1.19-8.23,1.82-11.09,5.63c-0.9,1.2-3.7,2.16-4.92,1.63c-1.53-0.67-3.56-3.3-3.25-4.56
		c1.67-6.82,3.52-13.69,6.36-20.07c0.88-1.98,5.46-3.02,7.75-3.55c0.72-0.17,2.58,1.04,2.79,1.89c1.64,6.7,6.19,8.89,12.61,6.15
		c3.54-1.51,7.24-1.1,9.5,2.29c2.18,3.29,2.62,6.59-0.5,10.28c-4.4,5.22-7.88,11.21-11.98,16.7c-3.15,4.23-6.85,8.07-9.91,12.35
		c-2.23,3.1-3.98,6.58-5.63,10.03c-0.86,1.82-2.33,4.79-1.4,5.72c2.5,2.5,6.61,3.37,10.02,3.29c1.25-0.03,2.59-4.73,3.08-7.44
		c1.07-5.94,0.83-12.24,2.71-17.85c0.82-2.45,5.36-4.46,8.54-5.13c4.91-1.04,10.13-1.23,15.15-0.89c4.57,0.31,6.91,3.77,7.54,8.22
		c1.02,7.17-0.6,13.82-3.81,20.22c-0.27,0.53,0.48,2.08,1.15,2.48c3.12,1.84,6.82,2.96,9.42,5.33c1.51,1.37,3.47,4.25,2.68,6.58
		c-0.63,1.85-2.57,1.48-3.76,1.78c-1.47,0.38-3.53,0.2-4.93,0.03c-4.32-0.52-8.52-2-12.79-3c-1.38-0.32-1.73,1.36-1.43,0.59
		c-1.5,3.97-4.15,7.77-0.4,12.17c1.17,1.37,1.73,4.68,0.87,6.02c-1.63,2.56-4.17,5.53-6.87,6.23c-7.86,2.02-15.97,3.11-24.01,4.34
		c-3.79,0.58-7.85,1.45-11.42,0.61c-2.36-0.56-4.45-3.67-5.97-6.08C458.51,128.05,457.1,121.96,457.34,121.86 M503.67,95.62
		c3.6,0.22,4.41-0.03,5.17-1.38c2.52-4.47,2.63-10.38,2.61-15.49c-0.01-1.73-3.11-3.94-5-4.44c-0.85-0.23-2.72,0.03-3.75,1.2
		c-2.82,3.17-3.62,6.13-5.3,9.61c-1.1,2.29-1.84,4.78-2.47,7.24c-0.18,0.68-0.05,1.99,0.96,2.31
		C498.41,95.17,500.28,95.42,503.67,95.62 M499.04,106.02c-0.38-1.35-1.52-2.88-2.75-2.94c-1.47-0.07-3.57,1.68-5.04,3.36
		c-1.48,1.69-2.3,3.97-3.74,5.72c-2.92,3.55-6.09,6.89-9.09,10.37c-0.26,0.3-0.45,1.13-0.1,1.5c0.31,0.33,0.94,0.14,1.36,0.01
		c2.56-0.78,5.07-1.79,7.67-2.4C491.93,120.57,499.67,111.56,499.04,106.02 M467.63,111.07c0.11,2.02-0.23,3.73,0.39,4.96
		c0.5,0.99,2.61,2.23,3.21,1.9c1.73-0.94,3.15-2.52,4.49-4.03c1.6-1.81,4.02-4.8,5.28-6.86c0.43-0.7,0.15-2.05-0.51-2.41
		c-2.17-1.18-4.77-2.15-7.1-1.98c-1.72,0.13-4.24,2.6-5.35,4.19C467.26,107.98,467.71,109.98,467.63,111.07"/>
	<path class="st1" d="M719.36,120.03c9.27,0.42,18.77-1.9,28.34-2.49c1.4-0.08,3.83,1.85,4.14,3.22c0.31,1.35-1.15,4.2-2.4,4.6
		c-3.24,1.04-2.27,0.58-5.7,1.03c-0.29,0.04-4.24-0.38-5.46,0.46c-8.58,5.87-17.01,3.62-25.7,2.6c-5.87-0.69-11.63-2.31-17.45-3.46
		c-0.52-0.1-1.43,0.07-1.64,0.43c-0.26,0.43,0.11,1.19,0.09,1.8c-0.14,3.32,0.46,6.88-0.76,9.88c-0.69,1.69-4.15,1.35-6.01,0.79
		c-1.79-0.53-3.78-2.36-4.52-4.11c-3.82-9.08,0.22-18.08,1-27.07c0.86-9.86,3.08-19.6,4.67-29.4c0.79-4.87,1.24-9.83,2.46-14.58
		c0.37-1.45,2.8-3.36,4.28-3.36c6.31,0,12.71,0.13,18.88,1.3c2.33,0.44,4.39,3.58,6.05,5.88c2.11,2.91,3.76,6.16,5.46,9.35
		c1.55,2.92,4.27,6.06,4.02,8.9c-0.31,3.58-3.09,6.96-4.79,10.42c-0.74,1.51-1.46,3.02-2.19,4.54c2.1,0.37,4.19,0.99,6.3,1.07
		c3.5,0.13,7.2-0.31,7.38-4.82c0.12-2.9-0.8-5.87-1.47-8.75c-1.52-6.6-3.15-13.17-4.77-19.75c-0.74-3.01-2.13-6-2.08-8.98
		c0.03-1.54,1.52-3.97,3.54-4.02c0.79-0.02,2.57,0.31,4.02,1.33c5.24,4.31,2.2,9.57,3.62,14.1c1.45,4.61,2.91,9.26,5.06,13.54
		c1.47,1.46,4.85,1.85,6.11-0.4c1.8-4.37,3.33-9.07,3.68-13.75c0.27-3.59-2.04-7.34-1.9-10.97c0.09-2.27,0.97-5.86,4.06-6.64
		c1.47-0.37,4.6,2.53,5.63,4.46c1.35,2.52,0.42,6.86,2.21,8.43c5.59,4.88,1.17,9.18,0.19,13.66c-0.85,3.87-1.67,7.81-3.12,11.47
		c-1.54,3.9-0.98,4.69-3.06,8.35c-0.64,1.13-4.31,5.71-5.32,6.59c-2.94,2.57-5.91,4.72-9.26,6.56c-1.96,1.07-5.01,0-7.54,0.23
		c-8.64,0.82-17.47-0.44-25.55,2.73c-0.69,0.27-2.41,0.93-2.31,1.83c0.09,0.77,1.3,0.97,2.02,1.12
		C712.7,118.83,715.77,119.87,719.36,120.03 M711.38,100.6c1.88-0.66,4.72-3.42,5.14-5.33c0.71-3.25,1.4-6.62-0.07-9.32
		c-2.25-4.13-4.86-6.7-9.15-11.02c-0.85-0.85-3.88-2.9-5.03-2.91c-2.84-0.03-4.78,4.14-5.26,6.33c-1.33,6.03-2,12.22-2.56,18.39
		c-0.09,1.02,0.79,2.1,1.44,2.37C696.64,99.44,705.92,102.53,711.38,100.6"/>
	<path class="st1" d="M1076.52,58.28c-0.33-5.35,1.64-11.43,2.91-17.47c0.24-1.13,1.52-2.64,2.74-2.76c1.62-0.16,3.15,1.94,3.3,3.17
		c0.71,6.05,4.06,11.93,1.37,18.33c-0.33,0.79,0.75,3.02,2.18,3.34c2.44,0.55,5.05-1.93,6.09-3.86c2.07-3.89,4.02-8.29,4.26-12.58
		c0.23-3.94-2.02-7.98-2.8-12.04c-0.31-1.58-0.19-4.35,0.73-4.9c6.01-3.58,10.8-0.75,12,6.8c0.39,2.45,0.08,5.16,1,7.35
		c0.86,2.05,2.84,3.7,4.54,5.29c0.98,0.91,2.35,1.46,3.63,1.98c1.38,0.56,2.85,0.89,4.29,1.32c0.23-2.26,0.99-4.62,0.57-6.74
		c-0.97-4.83-2.96-9.47-3.73-14.32c-0.75-4.72,3.07-6.18,8.72-3.72c3.68,1.59,5.21,4.51,5.27,8.31c0.07,5-0.03,10-0.01,15.01
		c0.01,4.57,0.71,9.25-0.04,13.68c-1.2,7.17-6.38,12.05-11.81,16.35c-4.81,3.82-10.43,6.73-14.78,10.98
		c-3.03,2.96-3.93,10.74-6.04,12.55c-3.61,3.11-3.46,8.01-4.12,12.72c-0.14,1.02,2.91,2.52,4.53,3.75c2.16,1.65,5.72,2.58,6.61,3.81
		c2.84,3.92-0.82,9.93-3.09,11.24c-7.89,4.55-6.64-2.13-9.51,5.69c-3.14,4.51-7.56,8.31-11.99,11.68
		c-3.31,2.52-17.21-0.07-20.15-3.21c-0.68-0.73-0.99-2.97-0.52-3.36c1.32-1.09,3.1-2.03,4.77-2.2c5.44-0.57,10.15-2.4,13.35-6.97
		c0.47-0.67-0.27-2.28-0.6-3.42c-1.3-4.51-4.81-4.51-8.54-4.18c-2.87,0.26-5.76,0.64-8.62,0.37c-2.12-0.2-2.71-1.83-2.73-2.39
		c-0.01-0.38,0.51-2.78,1.82-3.6c4.72-2.96,9.21-5.56,14.39-7.41c5.19-1.86,7.04-4.34,6.94-9.9c-0.06-3,2.8-7.88,5.55-9.99
		c2.82-2.17,3.39-4.48,5.16-7.7c0.52-0.96,1.21-2.77,0.35-3.69c-1.18-1.26-3.49-0.21-5.15,0.11c-1.88,0.36-3.63,1.37-5.51,1.84
		c-5.72,1.45-11.42,3.21-17.24,3.93c-2.4,0.3-7.63-1.22-7.59-2.83c0-0.15-0.06-2.73,1.09-3.19c8.94-3.51,18.58-4.96,27.88-7.41
		c2.14-0.56,4.28-1.14,6.34-1.94c0.86-0.34,2.26-0.93,2.24-1.92c-0.05-1.94-2.88-2.73-4.58-3.56c-2.56-1.26-4.66-0.66-5.89,2.32
		c-0.5,1.22-1.35,3.14-2.75,3.15c-1.7,0.02-2.9-2.29-3.38-3.75C1078.56,68.15,1076.86,63.9,1076.52,58.28 M1111.46,73.24
		c3.42-0.72,4.45-4.06,5.78-6.63c0.62-1.2,0.21-3.47-0.57-4.75c-1.4-2.31-3.4-4.26-5.19-6.33c-0.43-0.5-1-0.88-1.51-1.32
		c-0.41,0.62-0.92,1.19-1.21,1.86c-0.97,2.26-2.17,4.48-2.69,6.85c-0.55,2.54-1.07,5.43-0.33,7.77
		C1106.17,72.08,1108.56,73.85,1111.46,73.24"/>
	<path class="st1" d="M846.01,88.25c-2.04-7.46,6.37-8.5,10.27-10c5.71-2.21,9.19-5.94,12.66-10.51c4.59-6.04,5.17-12.69,3.96-19.62
		c-0.22-1.29-3.13-2.21-4.9-3.09c-1.78-0.88-4.92-0.19-5.56-2.2c-0.72-2.27,1.55-4.25,3.04-5.6c7.24-6.58,25.61-6.41,30.62-0.41
		c1.38,1.65,1.97,4.8,1.5,6.96c-1.22,5.61-3.27,11.03-4.76,16.59c-0.07,0.26,2.3,1.82,3.32,1.63c5.65-1.07,8.44,1.86,10.69,6.47
		c2.17,4.44-0.5,7.37-2.55,10.59c-0.4,0.63-1.31,0.95-1.67,1.59c-1.38,2.48-5.03,6.11,2.32,4.38c1.19-0.28,3.64,2.14,4.43,3.83
		c0.46,0.98-0.86,3.93-1.99,4.34c-7.22,2.66-14.56,5-21.94,7.17c-6.96,2.05-14.04,3.71-21.04,5.64c-5.15,1.42-10.2,3.38-15.43,4.24
		c-1.52,0.25-5.01-1.61-5.3-3.83c-0.25-1.94,2.09-3.68,3.66-4.53c4.53-2.42,9.22-5.61,14.08-6.1c5.83-0.58,9.87-3.25,13.56-6.89
		c3.06-3.02,5.54-6.67,8.07-10.19c0.45-0.63,0.58-2.38-0.22-3.02c-0.82-0.66-2.44-0.15-3.08,0.42
		c-5.84,5.16-11.68,10.33-17.25,15.78c-3.63,3.54-8.13,4.3-12.38,3.31C848.3,94.77,846.74,90.93,846.01,88.25"/>
	<path class="st1" d="M929.18,130.4c5.44,1.11,9.74-4.21,14.04-7.6c3.59-2.83,6.12-7.06,8.96-10.79c2.5-3.27,0.38-9.52-3.91-11.45
		c-4.31-1.94-8.41-3.65-6.63-9.83c1.34-4.64,9.54-10.41,14.36-10.05c2.56,0.19,6.1,0.37,7.55-1.08c1.89-1.88,2.68-5.35,2.97-8.22
		c0.81-7.98,1.14-16.02,1.6-24.04c0.25-4.44,3.49-6.44,7.27-4.2c7.7,4.56,6.95,4.52,4.51,15.27c-1.06,4.68-1.65,9.49-2.16,14.27
		c-0.07,0.62,1.47,2.15,2.38,1.89c2.66-0.76,4.33-3.61,6.81-4.69c1.92-0.84,4.62-0.89,6.66-0.26c6.92,2.11,7.71,8.54,8.8,14.28
		c0.77,4.06-1.36,7.54-5.05,9.46c-2.19,1.14-5.04,1.07-7.12,2.33c-3.98,2.4-7.45,5.65-11.46,7.98c-2.6,1.5-5.91,1.72-8.66,3.03
		c-1.38,0.66-2.44,2.32-3.27,3.76c-3.63,6.27-6.95,12.73-10.73,18.9c-2.21,3.61-4.99,6.9-7.71,10.17
		c-2.56,3.07-13.44,3.88-16.94,1.83c-1.95-1.14-4.61-1.04-6.54-2.2c-1.61-0.97-3.62-3.62-3.63-4.35c-0.03-2.59,1.42-4.51,4.22-4.39
		C926.57,130.45,928.15,130.19,929.18,130.4"/>
	<path class="st1" d="M745.38,132.55c5.91,2.14,8.2,0.26,13.96-0.17c3.24-0.24,5.84-1.84,8.82-3.22c1.13-1.18,1.59-0.76,2.29-3.93
		c0.53-4.93,0.84-9.88,1.18-14.83c0.41-5.9,0.91-11.8,1.09-17.71c0.26-8.16,0.75-16.36,0.22-24.49c-0.46-6.92-2.04-13.79-3.6-20.58
		c-0.24-1.04-3.09-2.19-4.66-2.1c-8.32,0.48-16.75,0.65-24.87,2.3c-5.61,1.14-10.4,1.36-14.6-2.58c-1.56-1.47-3.51-3.54-3.37-5.81
		c0.19-3.13,4-2.49,6.11-2.72c8.81-0.96,17.68-1.4,26.5-2.29c3.12-0.32,6.32-1.01,9.22-2.19c4.85-1.97,9.65-2.52,14.02,0.46
		c4.43,3.02,4.33,7.96,4.33,12.84c0,5.3,0.67,10.6,0.92,15.9c0.26,5.2,0.37,10.41,0.54,15.62c0.18,5.65,0.52,11.31,0.44,16.96
		c-0.08,5.83-0.65,11.65-0.91,17.48c-0.22,4.95,0.37,10.06-0.65,14.82c-1.18,5.47-3.31,10.86-5.87,15.84
		c-1.53,2.97-4.31,5.87-7.25,7.38c-2.44,1.25-5.98,0.72-8.99,0.47c-7.99-0.65-16.21-1.18-22.03-7.67c-1.64-1.84-2.85-5.1-2.44-7.38
		c0.28-1.57,3.45-4.63,5.69-3.86C741.94,131.28,744.92,132.39,745.38,132.55"/>
	<path class="st1" d="M556.62,81.34c-0.61-8.37,4.09-14.54,7.81-21.18c1.87-3.32,2.91-7.2,3.78-10.96c0.92-3.99,1.17-8.14,1.79-12.2
		c0.13-0.82,0.75-1.98,0.93-2.27c2.53-4.08,10.22-3.07,18,0.21c2.17,0.92,3.51,6.01,2.69,8.32c-2.08,5.89-5.76,11.19-8.54,16.85
		c-1.49,3.04-2.54,6.31-3.57,9.55c-0.18,0.57,0.54,1.83,1.17,2.17c7.54,4.08,9.5,8.38,7.76,16.86
		c-2.74,13.3-10.42,23.51-19.82,32.81c-4.29,4.24-7.96,9.1-12.11,13.49c-1.06,1.12-3.33,2.53-4.21,2.1
		c-2.36-1.15-5.36-2.83-6.12-5.01c-1.47-4.17-1.47-8.84-2.3-13.27c-0.29-1.54-1.48-2.92-1.77-4.46c-0.41-2.16-2.13-5.09-0.52-6.61
		c1.43-1.36,4.6-0.24,5.76,0.84c7.45,6.96,16.85,5.22,21.06-4.05c0.53-1.17,2.2-1.91,3.45-2.65c5.37-3.19,4.8-8.8,5.26-13.71
		c0.38-4.05-3.25-6.43-6.38-4.78c-1.62,0.86-2.94,2.78-4.57,3.02c-3.67,0.53-7.31,0.45-8.3-0.56
		C556.8,84.78,557.01,82.92,556.62,81.34"/>
	<path class="st1" d="M614.86,125.58c-0.48-7.27-0.18-14.58,0.04-21.87c0.39-12.94,1.45-25.88,1.37-38.81
		c-0.03-5.45-1.89-11-3.58-16.3c-2.03-6.39,0.25-11.16,6.71-13.3c2.7-0.89,6.76,2.57,8.45,4.33c3.66,3.83,2.55,3.11,4.69,6.34
		c2.77,4.17,1.43,8.44,1.2,12.17c-0.55,8.89-1.17,17.79-2.19,26.63c-0.82,7.17-2.49,14.25-3.35,21.42
		c-0.75,6.23-0.72,12.54-1.36,18.79c-0.34,3.38-1.02,7.47-2.15,10.01c-0.25,0.57-1.29,1.25-1.99,1.33c-2.28,0.24-5.54-0.37-6.48-1.8
		C614.63,132.06,615.13,129.68,614.86,125.58"/>
	<path class="st1" d="M896.46,123.19c-1.89,5.08,0.65,6.97,1.88,12.27c1.43,6.17-3.24,9.18-8,9.74c-3.08,0.36-6.89,0.08-9.38-1.49
		c-3.67-2.31-1.66-5.28,0.72-8c0.97-1.11,2.18-3.75,1-5.02c-0.96-1.02-2.77,0.37-4.17,0.44c-2.27,0.11-4.77,0.77-6.77,0.06
		c-4.64-1.66-5.81-0.71-7.47,4.95c-0.69,2.36-3.14,5.44-5.28,5.88c-4,0.84-6.33-1.87-6.18-6.24c0.1-2.8-0.06-5.6,0.02-8.4
		c0.05-1.67,0.19-3.36,0.55-4.99c1.19-5.3,4.76-5.15,9.16-4.38c4.75,0.83,9.73,1.46,14.46,0.9c2.81-0.33,5.16-3.62,8.05-4.64
		c2.56-0.91,5.73-1.14,8.33-0.49c1.79,0.44,3.1,1.38,3.8,4.17C897.74,120.16,896.72,122.48,896.46,123.19"/>
	<path class="st1" d="M810.18,105.3c-2.42-0.24-3.44,1.54-4.39,2.34c-2.91,2.46-6.28,2.47-8.62,0.11c-1.41-1.43-1.64-4.63-1.45-6.95
		c0.64-7.47,7.18-6.37,11.99-7.85c2.28-0.7,4.44-2.87,6.58-2.76c7.72,0.39,13.63,5.46,14.84,13.93c1.2,8.41,1.15,17.05,1.06,25.58
		c-0.05,4.74-0.98,9.54-2.09,14.18c-0.9,3.76-4.06,5.8-7.59,4.19c-1.42-0.66-2.06-4.23-2.1-6.49c-0.11-7.01,0.46-14.04,0.3-21.05
		c-0.07-3.28-0.52-6.89-2.03-9.7C815.41,108.47,812.97,105.58,810.18,105.3"/>
	<path class="st1" d="M663.29,103.47c-4.84,0.5-6.16-3.98-8.98-6.94c-2.4-2.52-6.29-3.59-9.47-5.39c-1.13-0.64-2.9-1.44-3.01-2.33
		c-0.15-1.23,0.44-3.38,1.62-3.78c5.78-1.97,11.95-2.74,18.02-3.24c5.17-0.42,13.82,8.01,14.22,12.95
		C676.17,100.54,672.15,103.47,663.29,103.47"/>
	<path class="st1" d="M1012.7,129.06c-0.03,3.71-3.9,5.83-6.26,6.92c-2.09,0.96-5.27,0.13-7.8-0.53c-3.15-0.83-6.16-2.23-9.18-3.52
		c-3.07-1.31-3.78-3.19-1.73-6.22c0.71-1.06,0.67-3.18,0.12-4.45c-2.26-5.23-0.86-7.22,4.73-7.71c7.04-0.61,11.13,3.37,15.35,7.79
		C1009.07,122.54,1012.73,125.25,1012.7,129.06"/>
	<path class="st1" d="M1062.11,73.07c-1.26-9.98,1.01-19.89,1.87-29.69c0.12-1.38,1.82-3.61,3.62-3.47c1.24,0.1,2.05,1.57,2.15,2.64
		c0.91,9.09,1.98,18.2,2.15,27.31c0.05,2.65-2.51,5.43-4.17,7.96c-0.34,0.52-2.54,0.63-2.93,0.16
		C1063.66,76.58,1062.33,74.84,1062.11,73.07"/>
	<path class="st1" d="M833.01,45.71c3.68,0.08,6.44,3.21,6.88,5.04c0.95,3.92-1.64,6.13-5.74,7.31c-3.75,1.08-7,3.81-10.71,5.11
		c-1.79,0.63-5.43,0.27-5.97-0.8c-0.92-1.8-0.98-5.67,0.23-6.65C822.29,52.04,826.54,45.57,833.01,45.71"/>
	<path class="st1" d="M1048.86,98.15c-0.15,1.99-1.25,4.92-2.52,7.66c-0.58,1.24-2.67,2.9-3.51,2.67c-2.87-0.78-5.95-3.71-6.06-5.8
		c-0.24-4.39,1.4-8.89,2.34-13.33c0.28-1.33,0.43-2.96,1.27-3.85c1.14-1.22,2.65-2.88,4.39-2.75c2.02,0.15,1.96,3.03,2.36,4.69
		C1047.88,90.6,1049.18,93.83,1048.86,98.15"/>
	<path class="st1" d="M446.38,55.32c0.07,3.8-4.13,7.72-8.35,7.79c-5.05,0.09-8.97-4.82-8.95-11.51c0.01-3.1,1.06-5.16,4.95-5.2
		C440.71,46.33,447.13,50.18,446.38,55.32"/>
</g>
</svg>
